<svg xmlns="http://www.w3.org/2000/svg" width="400" height="200">
  <defs>
    <linearGradient id="gradient" x1="0%" y1="0%" x2="100%" y2="100%">
      <stop offset="0%" stop-color="#FFA116" />
      <stop offset="35%" stop-color="#F6BA6F" />
      <stop offset="100%" stop-color="#F6BA6F" />
    </linearGradient>
    <style>
      @import url('https://fonts.googleapis.com/css2?family=Open+Sans&amp;display=swap');
      text {
        font-family: 'Open Sans', sans-serif;
      }
    </style>
  </defs>
  <rect x="0" y="0" width="100%" height="100%" fill="url(#gradient)" rx="10" />
  <text x="20" y="57" font-size="40" font-weight="700" fill="#fff" font-family="Poppins">{{rep}} rep.</text>
  <text x="18" y="88" font-size="20" font-weight="500" fill="#fff" opacity="0.6" font-family="Poppins">{{rep_change}}</text>
  <circle cx="25" cy="118" r="7" fill="#CD7F32" />
  <text x="40" y="123" font-size="14" font-weight="400" fill="#fff" font-family="Poppins">{{golds}}</text>
  <circle cx="25" cy="143" r="7" fill="#C0C0C0" />
  <text x="40" y="148" font-size="14" font-weight="400" fill="#fff" font-family="Poppins">{{silvers}}</text>
  <circle cx="25" cy="168" r="7" fill="#FFD700" />
  <text x="40" y="173" font-size="14" font-weight="400" fill="#fff" font-family="Poppins">{{bronzes}}</text>
  <defs>
    <clipPath id="circle-mask">
      <circle cx="305" cy="100" r="50" />
    </clipPath>
  </defs>
  <svg x="332.5" y="52.5" aria-hidden="true" class="native svg-icon iconLogoGlyphMd" width="40" height="200" viewBox="0 0 32 37">
    <path d="M26 33v-9h4v13H0V24h4v9h22Z" fill="#BCBBBB"></path>
    <path d="m21.5 0-2.7 2 9.9 13.3 2.7-2L21.5 0ZM26 18.4 13.3 7.8l2.1-2.5 12.7 10.6-2.1 2.5ZM9.1 15.2l15 7 1.4-3-15-7-1.4 3Zm14 10.79.68-2.95-16.1-3.35L7 23l16.1 2.99ZM23 30H7v-3h16v3Z" fill="#F48024"></path>
  </svg>
</svg>
